<?xml version="1.0" encoding="UTF-8"?>
<svg version="1.1" xmlns="http://www.w3.org/2000/svg" width="180" height="180">
<path d="M0 0 C59.4 0 118.8 0 180 0 C180 59.4 180 118.8 180 180 C120.6 180 61.2 180 0 180 C0 120.6 0 61.2 0 0 Z " fill="#C5C5C5" transform="translate(0,0)"/>
<path d="M0 0 C9.57 0 19.14 0 29 0 C26 2 26 2 22.625 3.625 C18.26121514 6.15946158 15.94368353 9.36520857 14 14 C13.30551163 18.09421912 13.32591175 22.11072045 13.36889648 26.25585938 C13.36174118 27.46337357 13.35458588 28.67088776 13.34721375 29.91499329 C13.33326051 33.20663611 13.34157518 36.49725049 13.36130404 39.78883553 C13.37777293 43.2457475 13.36886626 46.7026111 13.36378479 50.1595459 C13.35927295 55.9631036 13.37507668 61.76633804 13.40307617 67.56982422 C13.43512429 74.26376317 13.43510956 80.95711936 13.4178614 87.65109968 C13.40195539 94.11072001 13.4087559 100.57012824 13.42579842 107.02973938 C13.43264149 109.76961468 13.43166494 112.50931856 13.42425346 115.24919128 C13.41879105 119.08120573 13.43921225 122.91223813 13.46655273 126.74414062 C13.46002686 127.87165237 13.45350098 128.99916412 13.44677734 130.1608429 C13.53309138 137.29150291 14.41244424 143.14228777 19.41173458 148.51804352 C23.91430087 152.52245103 28.17959399 154.24675148 34.14779663 154.26069641 C35.16266647 154.26778122 36.17753632 154.27486603 37.22315979 154.28216553 C38.32562546 154.27968811 39.42809113 154.27721069 40.56396484 154.2746582 C41.73363297 154.27976913 42.90330109 154.28488007 44.1084137 154.29014587 C47.97597365 154.30404879 51.84335552 154.30308446 55.7109375 154.30078125 C57.72020634 154.30309064 59.72947079 154.30659443 61.7387377 154.310188 C68.05566099 154.3212743 74.37252482 154.3217258 80.68945312 154.31567383 C87.19523303 154.30963651 93.70079653 154.32194076 100.20653951 154.3432439 C105.80162186 154.36088801 111.39663551 154.36685677 116.99174464 154.36360615 C120.32925989 154.36179731 123.6664978 154.36571087 127.00400925 154.37832069 C130.72859075 154.39066518 134.45267251 154.38390454 138.17724609 154.37231445 C139.8248719 154.38378006 139.8248719 154.38378006 141.50578308 154.39547729 C149.78253404 154.33858834 155.86067092 152.97340126 162 147 C166.54833564 140.78218229 166.57210314 135.50341523 166.51757812 127.94946289 C166.5245874 126.7518483 166.53159668 125.5542337 166.53881836 124.32032776 C166.55336093 121.0514933 166.55001703 117.7833116 166.53730202 114.5144875 C166.52713081 111.08292284 166.53657929 107.65139986 166.54284668 104.21983337 C166.55011216 98.45743047 166.54056552 92.695233 166.52148438 86.93286133 C166.49972784 80.28610312 166.50676215 73.639836 166.52879 66.99308974 C166.54698795 61.27138465 166.54948067 55.54982675 166.53903532 49.82810205 C166.53282305 46.41737895 166.53190145 43.00688605 166.54518127 39.59617805 C166.55536381 35.79042726 166.53981909 31.98561288 166.51757812 28.17993164 C166.52567505 27.06019958 166.53377197 25.94046753 166.54211426 24.7868042 C166.46507482 17.65450001 165.5401674 11.90525508 160.62360382 6.48165989 C157.39776979 3.56136863 154.17328484 2.09300317 150 1 C150 0.67 150 0.34 150 0 C159.9 0 169.8 0 180 0 C180 59.4 180 118.8 180 180 C120.6 180 61.2 180 0 180 C0 120.6 0 61.2 0 0 Z " fill="#D9D9D9" transform="translate(0,0)"/>
<path d="M0 0 C5.28 0 10.56 0 16 0 C16 59.4 16 118.8 16 180 C10.39 180 4.78 180 -1 180 C2 178 2 178 3.90234375 176.95703125 C4.57394531 176.57933594 5.24554688 176.20164063 5.9375 175.8125 C6.94103516 175.26529297 6.94103516 175.26529297 7.96484375 174.70703125 C11.93167748 171.3797638 13.74824919 168.0423072 14.37529182 162.95547676 C14.52845092 159.09393125 14.55276605 155.24261009 14.53344727 151.37915039 C14.54051179 149.89357143 14.54925905 148.40799966 14.55955505 146.92243958 C14.58199959 142.9016654 14.57912097 138.88128577 14.57023358 134.86047292 C14.56511242 131.49819963 14.57242541 128.13599975 14.57970566 124.77373403 C14.59668907 116.8390806 14.5931547 108.90461955 14.57641602 100.9699707 C14.55949558 92.79629862 14.57533142 84.62316063 14.6076389 76.44954687 C14.63436705 69.41999944 14.64160214 62.39061793 14.63312382 55.3610248 C14.62820403 51.16778389 14.63035851 46.97486424 14.65091133 42.78166389 C14.66931946 38.83744946 14.66324811 34.89400092 14.63871193 30.94982719 C14.63372019 29.50672153 14.63715123 28.06355699 14.64986038 26.62049866 C14.71476278 18.61465153 14.66235283 12.10720007 9 6 C6.66193997 4.08307894 6.66193997 4.08307894 4.1875 3 C3.39730469 2.608125 2.60710937 2.21625 1.79296875 1.8125 C1.20128906 1.544375 0.60960937 1.27625 0 1 C0 0.67 0 0.34 0 0 Z " fill="#E7E7E7" transform="translate(164,0)"/>
<path d="M0 0 C0.33 0 0.66 0 1 0 C1 5.28 1 10.56 1 16 C-4.61 16 -10.22 16 -16 16 C-13 14 -13 14 -11.1328125 13.02734375 C-5.25122502 9.83480891 -2.73224767 6.02933501 0 0 Z " fill="#FDFDFD" transform="translate(179,164)"/>
<path d="M0 0 C5.28 0 10.56 0 16 0 C16 5.28 16 10.56 16 16 C13 12 13 12 11.375 9.0625 C8.22977506 5.0068152 4.5611867 3.20262435 0 1 C0 0.67 0 0.34 0 0 Z " fill="#FDFDFD" transform="translate(164,0)"/>
<path d="M0 0 C2 2 2 2 3.125 4.75 C6.16021391 10.01103745 11.03220009 12.68813339 16 16 C10.72 16 5.44 16 0 16 C0 10.72 0 5.44 0 0 Z " fill="#FDFDFD" transform="translate(0,164)"/>
<path d="M0 0 C5.28 0 10.56 0 16 0 C14.36688633 1.08874245 12.73334895 2.1768548 11.09765625 3.26171875 C6.22463033 6.67564286 3.57682544 9.63161367 1 15 C0.67 15 0.34 15 0 15 C0 10.05 0 5.1 0 0 Z " fill="#FEFEFE" transform="translate(0,0)"/>
</svg>
